# xmcd CD database file
#
# Track frame offsets:
#	150
#	17675
#	42198
#	63645
#	85204
#	115814
#	137112
#	159997
#	182690
#	204846
#	224036
#	247388
#	267707
#	291039
#	309894
#	334599
#
# Disc length: 4748 seconds
#
# Revision: 0
# Processed by: cddbd v1.4PL0 Copyright (c) Steve Scherf et al.
# Submitted via: CDex 1.50beta9
#
DISCID=ef128a10
DTITLE=Chris REA - Love Ballads (vol 2)
DYEAR=2002
DGENRE=Blues
TTITLE0=The Memory Of a Good Friend
TTITLE1=And You My Love
TTITLE2=Shadows Of The Big Man
TTITLE3=The Blue Cafe
TTITLE4=Nothing To Fear*
TTITLE5=As Long As I Have Your
TTITLE6=90's Blues
TTITLE7=Marvin
TTITLE8=I'm Still Holding On
TTITLE9=The Bones Of Angels
TTITLE10=The Way You Look Tonight
TTITLE11=Your Warm And Tender Love
TTITLE12=Stop
TTITLE13=Heaven
TTITLE14=You Must Follow
TTITLE15=Sail Away
EXTD=YEAR: 2002
EXTT0=
EXTT1=
EXTT2=
EXTT3=
EXTT4=
EXTT5=
EXTT6=
EXTT7=
EXTT8=
EXTT9=
EXTT10=
EXTT11=
EXTT12=
EXTT13=
EXTT14=
EXTT15=
PLAYORDER=
